# xmcd CD database file
#
# Track frame offsets:
#	150
#	16093
#	43863
#	64864
#	84548
#	99445
#	116512
#	139318
#	155672
#	172292
#
# Disc length: 2696 seconds
#
# Revision: 3
# Processed by: cddbd v1.5.2PL0 Copyright (c) Steve Scherf et al.
# Submitted via: CDex 1.51
#
DISCID=870a860a
DTITLE=Eddy Clearwater - The Chief
DYEAR=1900
DGENRE=Blues
TTITLE0=Find You A Job
TTITLE1=Blues For Breakfast
TTITLE2=Blue, Blue, Blue All Over You
TTITLE3=One Day At A Time
TTITLE4=I Wouldn't Lay My Guitar Down
TTITLE5=Chills
TTITLE6=Bad Dream
TTITLE7=I'm Tore Up
TTITLE8=Lazy Woman
TTITLE9=Blues For A Living
EXTD=
EXTT0=
EXTT1=
EXTT2=
EXTT3=
EXTT4=
EXTT5=
EXTT6=
EXTT7=
EXTT8=
EXTT9=
PLAYORDER=
